<svg xmlns="http://www.w3.org/2000/svg" width="21.331" height="24.185" viewBox="0 0 411 466">
  <path d="M209,89l31,39,41-28h1q3,25,6,50l51-4c-5.269,12.991-19.392,34.915-18,48l44,20-4,5-36,26v1c8.087,8.973,27.406,31.065,28,42l-44,5-2-2v-5l3-3,24-2v-3l-23-33,1-3,32-24-1-2-37-18,17-40-44,3q-2.5-20.5-5-41c-15.289,3.672-22.144,18.6-37,23l-25-33-2,1-12,26h-4l-5-4Zm-91,27c16.363,0.114,120.453,44.264,129,53q-0.5,4.5-1,9l-5,6c-20.622-.371-110.185-40.2-128-51q-1-5-2-10Zm-5,29,7,1,6,6c3.668,16.519-33.492,65.266-40,84h1l53-48c16.124,0.433,59.151,40.9,69,52l-7,19c6.834,13.982,17.834,13.226,28,23l-22,31c11.3,12.063,28.5,40.161,13,63l-119,1c-10.784,0-33.917,3.047-38-4l-1-94H52l-5-6C47.342,257.639,103.275,153.2,113,145Zm35,17c12.489,2.144,67.094,48.452,75,59q-1,3-2,6h-5c-13.573-5.621-63.607-46.852-71-59v-3Zm99,27c4.5,1.322,4.33,2.3,7,5v1c-2.3,2.711-2.527,3.218-6,5l-4-4v-3Zm36,3h2l17,32c-7.34,3.74-17.159,11.67-25,11q-7.5-15.5-15-31Zm-50,43,42,5-19,35-33-14Zm-52,10-32,17q9,17.5,18,35l33-19C195.414,267.957,189.308,251.694,181,245Zm110,16h6l2,3-1,4-3,3-6-3Q290,264.5,291,261ZM119,271v52l51-1V309c-6.036.829-6.891,0.564-11-2l-20-36H119Zm132,22,30,8-3,29-25,3-18-20Zm47,14c11.314,0.276,33.868,10.227,35,21l-3,3h-4l-30-16v-5Z"/>
</svg>
